# xmcd
#
# Track frame offsets:
#	151
#	9932
#	18075
#	31972
#	47673
#	67746
#	78679
#	93726
#	108145
#	121864
#
# Disc length: 1810
#
# Revision: 2
# Processed by: cddbd v1.5.1PL0 Copyright (c) Steve Scherf et al.
# Submitted via: EasyCDDAExtractor 7.0.6.1
# Normalized: r1:DSETVAR1
#
DISCID=6a07100a
DTITLE=Various Artist - Cuba Social Club - Bola de Nieve
DYEAR=1900
DGENRE=Blues
TTITLE0=Bola de Nieve - Vete de mi
TTITLE1=Pérez Prado - Mambo de la telefonista
TTITLE2=Enrique Jorrín - La blusa azul
TTITLE3=Celia Cruz - Pulpa de tamarindo
TTITLE4=Elena Burke - Quiereme mucho
TTITLE5=Compay Segundo - La mujer del peso
TTITLE6=Daniel Santos - Olga
TTITLE7=José A. Méndez - Si me dices que si
TTITLE8=Albita Rodríguez - Como se baila el son
TTITLE9=Olga Guillot - La noche de anoche
EXTD=
EXTT0=
EXTT1=
EXTT2=
EXTT3=
EXTT4=
EXTT5=
EXTT6=
EXTT7=
EXTT8=
EXTT9=
PLAYORDER=
